<svg xmlns="http://www.w3.org/2000/svg" width="1200" height="627" viewBox="0 0 1200 627">
  <defs>
    <linearGradient id="bg" x1="0" y1="0" x2="1" y2="1">
      <stop offset="0%" stop-color="#0f172a"/>
      <stop offset="100%" stop-color="#052e16"/>
    </linearGradient>
    <linearGradient id="accent" x1="0" y1="0" x2="1" y2="1">
      <stop offset="0%" stop-color="#34d399"/>
      <stop offset="100%" stop-color="#10b981"/>
    </linearGradient>
  </defs>
  <rect width="1200" height="627" fill="url(#bg)"/>
  <!-- Decorative elements -->
  <circle cx="1050" cy="100" r="200" fill="#34d399" opacity="0.05"/>
  <circle cx="150" cy="527" r="180" fill="#10b981" opacity="0.05"/>
  <!-- Left content -->
  <rect x="80" y="180" width="100" height="100" rx="20" fill="url(#accent)"/>
  <text x="130" y="252" font-family="Arial, sans-serif" font-size="70" font-weight="bold" fill="#0f172a" text-anchor="middle">A</text>
  <text x="80" y="340" font-family="Arial, sans-serif" font-size="52" font-weight="bold" fill="white">App Generator</text>
  <text x="80" y="400" font-family="Arial, sans-serif" font-size="32" fill="#34d399">Build Desktop Apps with AI</text>
  <text x="80" y="460" font-family="Arial, sans-serif" font-size="26" fill="#94a3b8">Describe what you want in plain English.</text>
  <text x="80" y="500" font-family="Arial, sans-serif" font-size="26" fill="#94a3b8">AI builds a complete desktop application.</text>
  <text x="80" y="570" font-family="Arial, sans-serif" font-size="24" fill="#64748b">app.website-generator.net</text>
  <!-- Right mockup area -->
  <rect x="750" y="100" width="370" height="430" rx="16" fill="#1e293b" stroke="#34d399" stroke-width="2" opacity="0.8"/>
  <rect x="770" y="120" width="330" height="30" rx="6" fill="#0f172a"/>
  <circle cx="785" cy="135" r="5" fill="#ef4444"/>
  <circle cx="805" cy="135" r="5" fill="#eab308"/>
  <circle cx="825" cy="135" r="5" fill="#22c55e"/>
  <rect x="770" y="170" width="330" height="340" rx="4" fill="#0f172a"/>
  <rect x="790" y="190" width="100" height="12" rx="2" fill="#34d399" opacity="0.6"/>
  <rect x="790" y="215" width="200" height="8" rx="2" fill="#475569"/>
  <rect x="790" y="235" width="180" height="8" rx="2" fill="#475569"/>
  <rect x="790" y="270" width="290" height="80" rx="8" fill="#1e293b"/>
  <rect x="790" y="370" width="140" height="35" rx="8" fill="url(#accent)"/>
  <text x="860" y="394" font-family="Arial, sans-serif" font-size="14" font-weight="bold" fill="#0f172a" text-anchor="middle">Generate</text>
</svg>